<svg width="22" height="18" viewBox="0 0 22 18" fill="none" xmlns="http://www.w3.org/2000/svg">
<path d="M9.83655 0.914062L9.44983 1.65234L6.88342 6.60938H15.0397L12.4733 1.65234L12.0865 0.914062L13.5631 0.140625L13.9498 0.878906L16.9381 6.60938H21.0865V8.29688H19.5397L17.149 17.8594H4.77405L2.38342 8.29688H0.836548V6.60938H4.98499L7.97327 0.878906L8.35999 0.140625L9.83655 0.914062ZM17.817 8.29688H4.14124L6.10999 16.1719H15.8483L17.817 8.29688ZM5.89905 10.2656C5.94592 9.75 6.22717 9.46875 6.7428 9.42188C7.25842 9.46875 7.53967 9.75 7.58655 10.2656C7.53967 10.7812 7.25842 11.0625 6.7428 11.1094C6.22717 11.0625 5.94592 10.7812 5.89905 10.2656ZM15.1803 9.42188C15.6959 9.46875 15.9772 9.75 16.024 10.2656C15.9772 10.7812 15.6959 11.0625 15.1803 11.1094C14.6647 11.0625 14.3834 10.7812 14.3365 10.2656C14.3834 9.75 14.6647 9.46875 15.1803 9.42188Z" fill="#0C0E14"/>
</svg>
