<svg width="15" height="14" viewBox="0 0 15 14" fill="none" xmlns="http://www.w3.org/2000/svg">
<path d="M10.6681 3.59059L8.94828 5.31042L9.67241 6.03456H14.5V1.20697L13.7759 0.482834L12.0259 2.23283C11.1408 1.34778 10.125 0.754386 8.97845 0.452662C7.8319 0.171053 6.68534 0.171053 5.53879 0.452662C4.39224 0.754386 3.37644 1.34778 2.49138 2.23283C1.60632 3.11789 1.01293 4.1337 0.711207 5.28025C0.429598 6.4268 0.429598 7.57335 0.711207 8.7199C1.01293 9.86645 1.60632 10.8823 2.49138 11.7673C3.37644 12.6524 4.39224 13.2458 5.53879 13.5475C6.68534 13.8291 7.8319 13.8291 8.97845 13.5475C10.125 13.2458 11.1408 12.6524 12.0259 11.7673L10.6681 10.4096C9.68247 11.355 8.54598 11.8277 7.25862 11.8277C5.97126 11.8277 4.83477 11.355 3.84914 10.4096C2.90374 9.42393 2.43103 8.28743 2.43103 7.00008C2.43103 5.71272 2.90374 4.57622 3.84914 3.59059C4.83477 2.64519 5.97126 2.17249 7.25862 2.17249C8.54598 2.17249 9.68247 2.64519 10.6681 3.59059Z" fill="#0C0E14"/>
</svg>
