<svg width="16" height="17" viewBox="0 0 16 17" fill="none" xmlns="http://www.w3.org/2000/svg">
<path d="M13.0766 7.03831C13.0557 8.50524 12.6365 9.79404 11.8193 10.9047L15.3084 14.3625L16 15.0855L14.5855 16.5L13.8625 15.8084L10.4047 12.3193C9.29404 13.1365 8.00524 13.5557 6.53831 13.5766C4.69417 13.5347 3.1539 12.8955 1.91749 11.6591C0.681074 10.4227 0.0419122 8.88245 0 7.03831C0.0419122 5.19417 0.681074 3.6539 1.91749 2.41749C3.1539 1.18107 4.69417 0.541912 6.53831 0.5C8.38245 0.541912 9.92272 1.18107 11.1591 2.41749C12.3955 3.6539 13.0347 5.19417 13.0766 7.03831ZM6.53831 11.5648C7.3556 11.5648 8.11002 11.3658 8.80157 10.9676C9.49312 10.5694 10.0485 10.0141 10.4676 9.30157C10.8658 8.58906 11.0648 7.83464 11.0648 7.03831C11.0648 6.24198 10.8658 5.48756 10.4676 4.77505C10.0485 4.06254 9.49312 3.5072 8.80157 3.10904C8.11002 2.71087 7.3556 2.51179 6.53831 2.51179C5.72102 2.51179 4.9666 2.71087 4.27505 3.10904C3.5835 3.5072 3.02816 4.06254 2.60904 4.77505C2.21087 5.48756 2.01179 6.24198 2.01179 7.03831C2.01179 7.83464 2.21087 8.58906 2.60904 9.30157C3.02816 10.0141 3.5835 10.5694 4.27505 10.9676C4.9666 11.3658 5.72102 11.5648 6.53831 11.5648Z" fill="#0C0E14"/>
</svg>
