<svg width="14" height="14" viewBox="0 0 14 14" fill="none" xmlns="http://www.w3.org/2000/svg">
<path d="M11.9062 2.03125C10.5312 0.697917 8.89583 0.0208333 7 0C5.70833 0.0208333 4.54167 0.333333 3.5 0.9375C2.45833 1.5625 1.625 2.39583 1 3.4375C0.395833 4.47917 0.0833333 5.64583 0.0625 6.9375C0.0625 8.1875 0.364583 9.34375 0.96875 10.4062L0 14L3.6875 13.0312C4.70833 13.5938 5.8125 13.875 7 13.875C8.29167 13.8542 9.45833 13.5417 10.5 12.9375C11.5625 12.3125 12.4062 11.4792 13.0312 10.4375C13.6562 9.39583 13.9792 8.22917 14 6.9375C14 6 13.8125 5.11458 13.4375 4.28125C13.0833 3.44792 12.5729 2.69792 11.9062 2.03125ZM7 12.7188C5.9375 12.6979 4.95833 12.4271 4.0625 11.9062L3.84375 11.7812L1.65625 12.3438L2.25 10.2188L2.125 10C1.54167 9.0625 1.23958 8.04167 1.21875 6.9375C1.26042 5.3125 1.83333 3.95833 2.9375 2.875C4.02083 1.77083 5.375 1.20833 7 1.1875C8.58333 1.1875 9.9375 1.75 11.0625 2.875C12.2083 4 12.8021 5.35417 12.8438 6.9375C12.7812 8.5625 12.1979 9.92708 11.0938 11.0312C9.98958 12.1146 8.625 12.6771 7 12.7188ZM10.1562 8.40625C10.0521 8.34375 9.85417 8.23958 9.5625 8.09375C9.27083 7.96875 9.07292 7.88542 8.96875 7.84375C8.82292 7.73958 8.69792 7.76042 8.59375 7.90625C8.51042 8.01042 8.41667 8.13542 8.3125 8.28125C8.1875 8.42708 8.09375 8.53125 8.03125 8.59375C7.94792 8.71875 7.82292 8.72917 7.65625 8.625C7.15625 8.39583 6.71875 8.13542 6.34375 7.84375C5.96875 7.55208 5.625 7.125 5.3125 6.5625C5.22917 6.4375 5.26042 6.3125 5.40625 6.1875C5.51042 6.10417 5.64583 5.91667 5.8125 5.625C5.85417 5.52083 5.84375 5.41667 5.78125 5.3125C5.76042 5.29167 5.71875 5.1875 5.65625 5C5.59375 4.83333 5.52083 4.64583 5.4375 4.4375C5.35417 4.27083 5.29167 4.13542 5.25 4.03125C5.125 3.78125 5.01042 3.6875 4.90625 3.75C4.88542 3.75 4.875 3.75 4.875 3.75C4.77083 3.75 4.65625 3.75 4.53125 3.75C4.40625 3.72917 4.25 3.79167 4.0625 3.9375C4.0625 3.95833 4.05208 3.97917 4.03125 4C3.92708 4.08333 3.8125 4.23958 3.6875 4.46875C3.5625 4.69792 3.48958 5.01042 3.46875 5.40625C3.48958 5.82292 3.59375 6.20833 3.78125 6.5625C3.96875 6.89583 4.09375 7.10417 4.15625 7.1875C4.15625 7.1875 4.16667 7.1875 4.1875 7.1875C4.1875 7.20833 4.19792 7.22917 4.21875 7.25C4.32292 7.4375 4.63542 7.8125 5.15625 8.375C5.65625 8.9375 6.3125 9.41667 7.125 9.8125C7.66667 10.0417 8.08333 10.1875 8.375 10.25C8.6875 10.2917 8.96875 10.2917 9.21875 10.25C9.40625 10.2083 9.625 10.1146 9.875 9.96875C10.125 9.82292 10.2917 9.64583 10.375 9.4375C10.5208 8.97917 10.5625 8.69792 10.5 8.59375C10.4583 8.53125 10.375 8.47917 10.25 8.4375C10.2083 8.41667 10.1771 8.40625 10.1562 8.40625Z" fill="white"/>
</svg>
