<svg width="64" height="64" viewBox="0 0 64 64" fill="none" xmlns="http://www.w3.org/2000/svg">
<rect width="64" height="64" fill="#FAFAFA"/>
<path d="M27.375 17V16H26.375H21.875H20.875V17V25.8187L17.5637 34.6489L17.5 34.8187V35V56V57H18.5H45.5H46.5V56V35V34.8187L46.4363 34.6489L43.125 25.8187V17V16H42.125H37.625H36.625V17V22.6098C36.5824 23.96 36.1356 25.045 35.3005 25.9255C34.4234 26.7574 33.3431 27.204 32 27.2495C30.6569 27.204 29.5767 26.7574 28.6995 25.9255C27.8644 25.045 27.4176 23.96 27.375 22.6098V17Z" fill="#0C0E14" stroke="#FAFAFA" stroke-width="2"/>
<rect x="24" y="40" width="16" height="7" fill="#1EB9C7" stroke="#FAFAFA" stroke-width="2"/>
<path d="M45.5 58H18.5L17.5 64H46.5L45.5 58Z" fill="#0C0E14"/>
</svg>
