<svg width="64" height="64" viewBox="0 0 64 64" fill="none" xmlns="http://www.w3.org/2000/svg">
<rect width="64" height="64" fill="#FAFAFA"/>
<path d="M28.808 25.0607L28.7996 25.0654L28.7913 25.0703C27.8211 25.6437 27.0437 26.4211 26.4703 27.3913C25.8901 28.3732 25.6 29.4493 25.6 30.6C25.6 31.7507 25.8901 32.8269 26.4703 33.8087C27.0437 34.779 27.8211 35.5564 28.7913 36.1297L28.7996 36.1346L28.808 36.1393C29.3307 36.4348 29.8709 36.6559 30.4268 36.8H23.9H23.156L22.9422 37.5127L20.2422 46.5127L19.856 47.8H21.2H42.8H44.144L43.7578 46.5127L41.0578 37.5127L40.844 36.8H40.1H33.5732C34.1291 36.6559 34.6694 36.4348 35.1921 36.1393L35.2005 36.1346L35.2087 36.1297C36.179 35.5564 36.9564 34.779 37.5297 33.8087C38.1099 32.8269 38.4 31.7507 38.4 30.6C38.4 29.4493 38.1099 28.3732 37.5297 27.3913C36.9564 26.4211 36.179 25.6437 35.2087 25.0703L35.2005 25.0654L35.1921 25.0607C34.1883 24.4933 33.1198 24.2 32 24.2C30.8802 24.2 29.8117 24.4933 28.808 25.0607Z" fill="#1EB9C7" stroke="#FAFAFA" stroke-width="2"/>
<path d="M22.1 18C23.7875 18.0375 25.0813 18.7875 25.9812 20.25C26.8062 21.75 26.8062 23.25 25.9812 24.75C25.0813 26.2125 23.7875 26.9625 22.1 27C20.4125 26.9625 19.1188 26.2125 18.2188 24.75C17.3937 23.25 17.3937 21.75 18.2188 20.25C19.1188 18.7875 20.4125 18.0375 22.1 18ZM42.8 18C44.4875 18.0375 45.7813 18.7875 46.6813 20.25C47.5063 21.75 47.5063 23.25 46.6813 24.75C45.7813 26.2125 44.4875 26.9625 42.8 27C41.1125 26.9625 39.8188 26.2125 38.9188 24.75C38.0938 23.25 38.0938 21.75 38.9188 20.25C39.8188 18.7875 41.1125 18.0375 42.8 18ZM16.7 28.8H25.025C24.875 29.3625 24.8 29.9625 24.8 30.6C24.875 32.8125 25.6812 34.6125 27.2188 36H14L16.7 28.8ZM50 36H36.7812C38.3188 34.6125 39.125 32.8125 39.2 30.6C39.2 29.9625 39.125 29.3625 38.975 28.8H47.3L50 36Z" fill="#0F111A"/>
</svg>
