<svg width="64" height="64" viewBox="0 0 64 64" fill="none" xmlns="http://www.w3.org/2000/svg">
<g clip-path="url(#clip0_12_62)">
<rect width="64" height="64" fill="#FAFAFA"/>
<path fill-rule="evenodd" clip-rule="evenodd" d="M52.2436 11.6616C52.5742 11.7171 53.4627 11.5222 53.5644 11.3277C53.6664 11.1328 53.2092 10.9106 52.6244 10.9106C52.0411 10.9106 51.9582 11.613 52.2436 11.6616ZM71.0104 -2.55234C71.4932 -2.33012 71.3156 -2.19068 70.8075 -2.19068C70.2997 -2.19068 69.8631 -2.00301 70.1985 -1.85633C70.452 -1.74502 70.4267 -1.43921 70.9601 -1.30057C71.4932 -1.16153 72.0259 -1.63411 71.976 -1.96845C71.9243 -2.30239 73.8295 -2.6074 74.338 -2.74724C74.845 -2.88588 74.0078 -3.47018 74.5658 -3.52563C75.1249 -3.58109 74.896 -3.85917 74.2103 -3.97088C73.5246 -4.0822 73.8045 -4.72195 73.576 -4.94417C73.347 -5.1664 73.2201 -4.66649 72.3308 -4.47159C71.4422 -4.27669 71.01 -4.02634 71.3659 -3.83224C71.7221 -3.63735 71.3659 -3.16477 70.9854 -3.19169C70.6046 -3.21982 70.5283 -2.77417 71.0104 -2.55234ZM72.3571 -1.77317C72.3571 -1.46736 71.5393 -1.16235 71.7719 -0.938919C71.9759 -0.743618 72.1531 -0.799878 72.4074 -0.744824C72.6609 -0.688565 72.7882 0.00664043 73.245 -0.104271C73.7021 -0.215584 74.9462 0.451491 75.6829 0.451491C76.4199 0.451491 76.4955 -0.215986 76.267 -0.244116C76.0388 -0.27104 76.2424 -0.660837 76.6478 -1.30059C77.0543 -1.93993 75.3784 -2.41332 75.3784 -1.91261C75.3784 -1.4119 74.8959 -2.02312 74.7433 -2.33013C74.5907 -2.63554 72.3571 -2.07978 72.3571 -1.77317ZM59.6591 12.0788C60.0653 12.3014 60.3701 12.2178 60.3188 11.7722C60.2685 11.3277 59.3359 11.902 59.6591 12.0788ZM70.3501 -4.52647C70.4517 -4.944 68.7659 -4.76236 69.2069 -4.3597C69.3602 -4.22066 70.2481 -4.10935 70.3501 -4.52647ZM145.085 15.6384C145.593 15.9169 145.898 15.3048 146.304 15.6107C146.711 15.9169 147.701 15.4716 148.107 15.388C148.513 15.3044 148.31 14.7487 147.168 14.5819C146.024 14.4151 144.539 15.3394 145.085 15.6384ZM76.2925 2.14857C76.6483 2.37079 77.7901 1.87048 78.5521 1.89821C79.3141 1.92634 81.4467 1.25846 81.5238 0.813611C81.5997 0.36876 80.7365 0.396086 80.4066 0.0066905C80.0768 -0.382303 79.3398 -0.0487652 79.1622 0.284773C78.9843 0.618712 78.781 0.312903 79.2631 -0.215936C79.7463 -0.744774 78.781 -1.1619 78.7553 -0.827958C78.7296 -0.494018 77.8414 -0.771698 77.8414 -0.46629C77.8414 -0.16048 77.5112 -0.0214391 77.5369 0.284773C77.5615 0.590985 76.9268 0.118004 76.9018 0.813611C76.8773 1.50922 75.9182 1.91469 76.2925 2.14857ZM109.05 7.8782C109.406 8.0735 109.534 8.26759 109.736 8.49022C109.939 8.71244 110.701 8.37891 111.006 8.26759C111.311 8.15668 111.336 8.7683 111.819 8.43436C112.301 8.10042 112.783 8.26759 113.342 8.26759C113.901 8.26759 113.241 7.51653 113.267 7.18259C113.292 6.84865 113.927 7.07208 113.723 7.34976C113.52 7.62784 114.028 8.26759 114.84 8.21214C115.653 8.15668 115.044 7.60011 115.45 7.40562C115.856 7.21072 115.805 6.98849 115.221 6.5983C114.638 6.2093 113.876 6.45966 113.367 6.2093C112.825 5.94207 112.174 5.93082 112.148 6.54324C112.123 7.15526 111.056 5.87576 110.497 5.68087C109.939 5.48677 108.211 7.41808 109.05 7.8782ZM114.358 11.4388C114.815 11.3279 114.028 10.4101 113.241 10.2706C112.453 10.1316 111.722 10.8409 111.819 10.994C112.048 11.356 113.901 11.5501 114.358 11.4388ZM112.327 9.60301C112.327 9.18549 110.943 9.75572 111.515 9.96468C111.819 10.0764 112.327 10.0201 112.327 9.60301ZM116.745 7.85046C117.355 7.90672 117.66 8.54607 118.828 8.62966C119.997 8.71284 120.859 8.46248 120.884 8.1844C120.91 7.90672 119.818 7.4892 119.488 7.71142C119.157 7.93365 118.904 7.34976 118.498 7.4892C118.091 7.62784 117.533 7.60011 117.329 7.21071C117.126 6.82212 116.44 7.82314 116.745 7.85046ZM114.155 43.5641C113.876 42.758 114.561 41.9788 114.053 41.5617C113.545 41.1441 113.748 40.2822 113.495 40.4489C113.24 40.6161 113.495 41.3676 113.089 41.4226C112.682 41.4781 113.063 41.8952 112.911 42.4526C112.758 43.0083 112.987 43.8152 113.19 44.3155C113.393 44.8155 112.911 47.4866 113.114 47.9318C113.317 48.3767 112.783 50.3457 112.962 50.574C113.267 50.9642 113.063 50.0456 113.52 49.962C113.977 49.8788 113.977 50.5181 114.257 50.6572C114.537 50.7966 114.358 49.7675 114.105 49.8229C113.851 49.8788 113.648 49.1555 113.52 48.7102C113.393 48.2654 113.774 47.7365 113.774 47.18C113.774 46.6238 114.409 46.6519 114.79 47.0686C115.172 47.4862 115.222 47.2081 115.07 46.9023C114.918 46.5965 114.434 44.371 114.155 43.5641ZM33.1982 18.7817C33.8839 19.4769 34.4687 18.4759 34.7978 18.4208C35.1283 18.3654 34.5949 17.9752 34.0361 17.8084C33.4785 17.6416 32.6805 18.2573 33.1982 18.7817ZM154.849 23.5242C154.596 23.4269 153.782 22.8567 153.579 22.5368C153.377 22.2169 152.398 22.0638 152.398 22.2306C152.398 22.3974 152.081 22.1892 152.005 22.0088C151.929 21.828 150.9 21.7994 150.888 21.9939C150.874 22.1888 151.129 22.2025 151.281 22.4259C151.433 22.6481 151.077 22.7727 151.153 23.0231C151.23 23.2734 150.773 22.8981 150.608 22.7594C150.443 22.6208 150.52 22.0779 150.57 21.7998C150.621 21.5221 150.277 21.5768 150.239 21.2995C150.201 21.021 149.059 20.4512 148.577 20.2286C148.094 20.006 147.472 19.8111 147.307 19.533C147.142 19.2557 146.278 19.2276 145.949 18.8514C145.618 18.4761 144.171 17.8086 143.549 17.7672C142.927 17.7254 143.066 17.3497 142.762 17.4052C142.457 17.461 141.149 17.3915 140.743 17.3216C140.336 17.2529 140.247 17.5864 139.955 17.4606C139.663 17.3356 138.152 16.7377 137.975 16.9607C137.797 17.1833 137.874 17.5028 137.696 17.5583C137.518 17.6137 137.696 17.8922 138.115 18.3093C138.534 18.7269 138.28 19.0471 137.899 19.2276C137.518 19.4076 136.908 19.06 136.718 18.7405C136.528 18.421 136.007 18.5593 135.88 18.1422C135.753 17.7254 136.032 17.6559 136.286 17.8922C136.54 18.1289 136.883 17.934 136.921 17.6286C136.959 17.3228 136.235 17.1134 135.841 17.1415C135.448 17.1693 135.232 17.7676 134.826 18.0184C134.42 18.2683 132.846 17.9203 132.68 17.754C132.515 17.5872 130.318 17.754 130.09 17.9207C129.861 18.0875 130.026 18.7413 129.912 18.7972C129.798 18.8522 129.683 18.0461 129.683 17.893C129.683 17.7395 129.417 17.6294 129.023 17.6294C128.63 17.6294 128.401 17.6145 128.566 17.4341C128.731 17.2541 128.413 17.0724 128.718 16.8365C129.023 16.5998 128.16 15.8629 127.322 15.5016C126.484 15.1395 124.579 15.3481 124.071 15.5152C123.563 15.682 122.547 15.6266 122.065 15.6402C121.583 15.6551 121.976 15.4317 121.837 15.1817C121.697 14.9314 120.871 14.6255 120.757 14.8341C120.643 15.0431 120.427 14.8341 120.427 14.681C120.427 14.5287 119.653 14.2221 119.348 14.2916C119.044 14.3607 118.904 13.985 119.259 13.985C119.616 13.985 120.224 14.0686 119.957 13.6241C119.691 13.1789 117.405 13.0398 117.19 13.1234C116.974 13.207 117.177 13.5261 116.682 14.0413C116.186 14.5556 115.704 14.2084 115.767 13.9581C115.832 13.7073 116.44 13.7491 116.44 13.4992C116.44 13.2484 115.603 13.3878 115.476 13.1789C115.348 12.9703 115.653 12.8313 115.958 12.9285C116.262 13.0262 116.796 13.0816 116.821 12.9285C116.847 12.7758 116.504 12.7477 115.996 12.65C115.488 12.5528 114.257 12.2329 113.609 12.3028C112.962 12.372 112.669 12.0388 112.315 12.0107C111.959 11.9826 111.959 12.2192 112.123 12.4415C112.289 12.6645 111.781 12.8031 111.361 12.7336C110.943 12.6645 110.333 12.984 110.575 13.3179C110.815 13.6519 111.057 13.2207 111.26 13.3324C111.463 13.4437 110.727 13.68 111.031 13.8331C111.336 13.9858 111.285 14.3057 111.298 14.4724C111.311 14.6392 110.79 14.7228 110.6 14.4724C110.409 14.2221 110.143 14.4443 109.787 14.417C109.432 14.3889 109.165 14.5693 109.546 14.6255C109.927 14.681 110.054 14.945 109.546 15.0009C109.038 15.0563 109.165 14.4861 108.861 14.5556C108.556 14.6255 107.896 14.2916 107.54 14.3053C107.184 14.3189 107.019 14.6251 106.549 14.6669C106.08 14.7087 105.445 14.4025 105.254 14.1248C105.064 13.8464 105.001 13.7632 104.772 14.083C104.543 14.4033 104.531 15.0145 104.302 15.0563C104.073 15.0981 103.985 15.6406 103.757 15.7797C103.528 15.9191 103.515 15.5707 103.223 15.5988C102.931 15.6266 101.992 14.6255 101.94 14.3334C101.89 14.0413 101.306 13.4847 101.154 13.3738C101.002 13.2625 101.306 13.207 101.496 13.3878C101.688 13.5683 101.928 13.5683 102.118 13.4574C102.309 13.346 102.284 12.8317 101.954 12.8176C101.623 12.8035 101.75 12.4981 101.915 12.4419C102.081 12.3864 101.535 11.8443 101.737 11.7889C101.94 11.7338 101.852 11.4967 101.573 11.4553C101.294 11.4135 101.002 11.1632 100.988 11.0097C100.976 10.857 99.7956 10.8011 99.8455 11.0237C99.8972 11.2468 99.4654 11.1768 99.5292 10.9964C99.5927 10.816 99.1095 10.871 98.5511 10.7047C97.9928 10.5375 97.9792 10.1059 97.7891 10.0786C97.5984 10.05 97.6622 10.6761 97.3837 10.5375C97.1042 10.3981 96.7986 10.6629 96.9512 11.0237C97.1031 11.3854 96.964 11.4409 96.9383 11.733C96.9134 12.0248 96.7608 11.9002 96.4306 11.7744C96.1008 11.6494 96.1008 12.081 95.3894 11.8861C94.6787 11.6916 94.361 11.9002 94.2344 11.6498C94.1075 11.3991 93.8911 11.3721 93.8657 11.5803C93.8412 11.7893 92.749 11.7057 92.6602 11.3991C92.5714 11.0937 92.8506 11.0382 93.0157 10.955C93.18 10.8714 92.8377 10.7461 92.2416 10.7879C91.6443 10.8292 91.2627 10.4539 90.6541 10.523C90.0443 10.593 88.6861 10.7316 88.4954 10.8292C88.305 10.9265 88.6733 11.3018 88.3809 11.3304C88.0892 11.3577 88.2921 10.7183 88.2415 10.4125C88.1912 10.1059 87.7466 10.0645 87.8097 10.3016C87.8728 10.5379 87.1111 10.6211 86.9207 10.4398C86.7299 10.259 86.4251 10.0227 85.9305 9.88408C85.4352 9.74504 84.8258 10.3289 84.9656 10.4961C85.1061 10.6633 85.4734 10.5379 85.4855 10.6484C85.5119 10.8771 84.4325 10.7879 84.4325 10.9823C84.4325 11.1772 83.4295 11.4413 83.1246 11.4831C82.2896 11.598 82.1084 11.5944 81.7151 11.9564C81.3218 12.3177 81.6263 11.6366 81.9308 11.3022C82.2353 10.9687 82.5527 11.1077 82.7309 10.8437C82.9089 10.5797 83.1881 10.607 83.6709 10.5234C84.1537 10.4398 84.1277 10.1344 84.357 10.0227C84.5848 9.91221 85.1435 9.67512 85.2448 9.42477C85.3468 9.17441 86.49 8.75729 86.7186 8.77135C86.9468 8.78542 86.9974 8.27064 87.124 8.27064C87.2516 8.27064 87.9113 7.95117 88.1655 7.82619C88.4198 7.70082 88.5463 7.4364 88.5592 7.25597C88.572 7.07513 88.2165 7.10286 88.178 6.93609C88.1399 6.76892 88.3427 6.88064 88.6098 6.76892C88.8765 6.65801 88.6098 6.26821 88.3948 6.33773C88.178 6.40725 88.5089 6.12917 88.3182 5.87882C88.1274 5.62846 87.7469 6.03192 87.759 5.7675C87.7722 5.50349 87.7337 5.16955 87.5815 5.00318C87.4292 4.83561 87.1504 5.29492 86.8327 5.03051C86.5153 4.76689 85.5882 4.59932 85.5882 4.71103C85.5882 4.82235 85.1435 4.54386 85.0555 4.65517C84.9663 4.76649 84.2297 4.75242 84.0004 4.6825C83.7725 4.61338 83.4552 4.77975 83.4423 5.0301C83.4302 5.28126 82.5288 5.18321 82.3633 5.14101C82.1986 5.09922 82.9859 4.38995 82.9859 4.26457C82.9859 4.14 81.6527 4.2927 81.576 4.15406C81.5004 4.01502 80.8525 3.97243 80.5605 3.98689C80.2677 4.00056 80.548 3.90331 80.8144 3.87558C81.0807 3.84785 81.3221 3.5971 81.6145 3.54204C81.9062 3.48618 81.8424 3.37487 81.7154 3.17997C81.5885 2.98588 81.2832 3.08272 80.9908 2.98588C80.6999 2.88863 80.344 2.74919 80.0905 2.73552C79.8366 2.72146 79.5571 2.87416 78.9602 2.99954C78.3629 3.12452 78.313 3.62563 78.0081 3.77833C77.7029 3.93144 77.1702 4.54306 77.4237 4.59851C77.6779 4.65437 77.5506 4.82154 77.5884 5.00197C77.6266 5.18241 77.3973 5.2242 77.1063 5.16874C76.8147 5.11369 75.7856 5.12695 75.7984 5.36364C75.8105 5.60033 76.3957 5.71084 76.3572 5.83622C76.319 5.9616 75.9129 5.82256 75.7096 5.69758C75.5064 5.5726 75.0489 5.64132 74.9604 5.87801C74.8717 6.1143 74.5158 6.05885 74.4017 6.00339C74.2872 5.94793 74.0333 6.1147 73.8433 6.04518C73.6529 5.97526 74.2245 5.66945 74.0847 5.51635C73.9442 5.36404 73.3352 5.50308 73.2721 5.75344C73.2086 6.00379 72.8399 5.57301 72.7001 5.65619C72.5607 5.73977 72.4084 5.83662 72.1417 5.962C71.875 6.08738 71.4179 5.82296 71.3166 6.04558C71.215 6.26781 71.8244 6.33773 71.8368 6.43458C71.8497 6.53263 70.4533 6.51816 70.4148 6.67127C70.3767 6.82478 69.9067 6.82478 69.3355 6.83844C68.7646 6.85251 68.9928 7.15832 68.5353 7.25597C68.0785 7.35362 67.8753 7.36728 67.723 7.61763C67.5708 7.86799 67.2145 7.90978 67.063 7.71448C66.9104 7.51999 66.491 7.81173 66.7192 7.83986C66.9478 7.86799 66.7328 8.11834 66.5927 8.06208C66.4529 8.00663 66.0471 8.3265 66.2757 8.29877C66.5039 8.27145 66.6183 8.47961 66.5039 8.63271C66.389 8.78542 65.8949 8.45188 65.7672 8.59092C65.6402 8.73036 66.0082 8.9108 66.2372 8.88307C66.4657 8.85534 66.5927 9.02211 66.618 9.20294C66.6433 9.38338 66.0845 9.09163 65.9704 9.24474C65.856 9.39744 66.0592 9.46696 66.2999 9.49549C66.542 9.52282 66.3637 9.62087 66.5798 9.82903C66.5967 9.84551 66.6099 9.86078 66.6209 9.87444C66.7519 10.0468 66.5053 10.1075 66.5296 10.2739C66.5538 10.4551 66.2874 10.5242 66.2874 10.3575C66.2874 10.1907 65.6149 10.1352 65.4748 10.3157C65.335 10.4973 65.2341 10.636 65.0686 10.4692C64.9039 10.3024 64.4211 10.5106 63.7992 10.5387C63.1774 10.5664 61.8951 10.6219 61.5774 10.7473C61.2597 10.8726 60.993 11.3589 61.2847 11.6788C61.5774 11.999 61.2971 12.1381 61.2971 12.3466C61.2971 12.5548 62.0591 12.986 62.466 13.0278C62.8725 13.0696 63.2023 13.6117 62.9609 13.9456C62.7199 14.2796 61.9832 13.8484 61.5011 13.4312C61.0183 13.0137 59.9012 12.8465 59.5332 12.8751C59.1645 12.9024 59.3806 12.5134 58.9113 12.5267C58.441 12.5411 58.0477 13.0001 58.3647 13.0001C58.6824 13.0001 58.886 12.9723 58.7205 13.1391C58.5558 13.3059 58.8093 13.2641 59.1901 13.4445C59.571 13.6257 58.8732 13.8761 58.4791 13.5839C58.0858 13.2918 57.6672 13.5695 57.5528 13.7929C57.4387 14.0151 58.0095 14.6545 58.6952 14.7662C59.3809 14.8775 59.1527 15.1134 59.4701 15.2388C59.7867 15.3642 59.5592 15.5036 59.3431 15.5173C59.1263 15.5317 58.6949 15.1556 58.3522 14.9611C58.0092 14.7662 57.0828 15.0447 56.8927 14.8216C56.7016 14.599 57.019 14.3772 56.8406 14.2104C56.6634 14.0433 56.8161 13.6675 57.045 13.2781C57.2732 12.8887 57.0068 12.2213 56.6759 12.1099C56.3461 11.9994 56.3714 12.3744 56.4477 12.4853C56.524 12.597 56.4859 13.1254 56.2316 13.473C55.9777 13.8206 55.2025 13.8206 55.2025 14.0573C55.2025 14.294 54.6827 14.4748 54.8599 14.6416C55.0378 14.8084 55.7363 15.6712 55.838 15.9352C55.9396 16.1988 55.2161 17.0334 55.3295 17.5205C55.4439 18.0075 55.2282 18.2294 55.3676 18.4665C55.5074 18.7035 55.8248 18.4938 56.0284 18.5918C56.2316 18.6891 56.5615 18.452 57.0311 18.3551C57.5007 18.2583 58.3643 18.8004 58.682 18.9668C58.999 19.1335 58.8339 19.4112 58.999 19.6897C59.1641 19.9686 58.6185 19.9686 58.6053 20.3853C58.5929 20.8028 59.5581 20.9829 59.5955 21.1082C59.6337 21.2332 58.9102 21.1364 58.6306 21.0247C58.3515 20.9137 58.3261 20.5099 58.2381 20.4267C58.1486 20.3435 58.4281 20.0096 58.4527 19.7452C58.4784 19.4807 58.1365 19.328 58.022 19.1472C57.9072 18.9664 57.7046 18.7023 57.4757 18.7578C57.2472 18.8137 56.4092 18.8964 56.1553 19.1472C55.9007 19.3975 56.1935 20.1064 56.3333 20.4548C56.4727 20.8028 55.5962 21.2887 55.6219 21.5667C55.6472 21.846 55.3552 21.9702 54.974 22.1932C54.5931 22.4155 54.1745 22.5822 54.1866 22.9443C54.1999 23.3056 53.6793 23.1111 53.4129 22.9443C53.1462 22.7771 52.8031 23.0416 52.422 23.0275C52.0415 23.0142 52.0415 22.6662 51.7363 22.7912C51.4325 22.9166 51.2292 22.6393 51.3173 22.3885C51.4061 22.1386 51.7491 22.3327 51.7748 22.5139C51.8001 22.6947 52.0158 22.6112 52.2701 22.4581C52.5236 22.3054 52.3977 22.653 52.7657 22.6807C53.1344 22.7088 52.9305 22.4721 53.21 22.4999C53.4892 22.528 53.5017 22.4307 53.4133 22.2772C53.3245 22.1241 53.6165 22.0136 53.7941 21.9296C53.9933 21.8356 53.8953 21.5266 54.0608 21.4293C54.2252 21.3317 54.1114 21.1368 54.2886 21.1223C54.4673 21.1086 54.5432 20.8165 54.7087 20.8165C54.8727 20.8165 54.9622 20.5239 54.8606 20.3712C54.7586 20.2185 54.9244 19.8014 55.0895 19.7456C55.2539 19.6901 55.2671 19.5229 55.1152 19.398C54.9622 19.273 54.4031 18.855 54.442 18.5918C54.4798 18.3278 54.3396 17.8404 54.4159 17.6322C54.4919 17.4232 54.4292 16.9921 54.4031 16.7417C54.3789 16.4909 54.5436 16.2133 54.6203 15.7543C54.6959 15.2954 54.1756 14.8084 53.9218 14.6834C53.6679 14.558 53.8322 14.3077 54.201 13.9737C54.5693 13.6402 54.5942 12.597 54.5693 12.3744C54.544 12.1517 53.7948 11.9576 53.5032 11.9846C53.2107 12.0127 52.1321 11.9576 51.8654 11.9014C51.5983 11.8459 51.5092 12.1517 51.3822 12.4298C51.2556 12.7083 50.9765 13.1395 50.8106 13.7652C50.6459 14.3909 49.9727 14.5858 49.6682 14.7248C49.3637 14.8642 49.1732 15.3224 49.3119 15.5454C49.4521 15.768 49.6557 15.5872 49.7951 15.6708C49.9345 15.7544 49.7826 16.3386 49.6931 16.4218C49.6043 16.505 49.8586 16.714 49.6432 16.8663C49.4264 17.0194 49.2231 17.3393 49.3504 17.5064C49.4777 17.6732 50.0992 17.7568 50.366 17.9235C50.6327 18.0903 50.5311 18.3961 50.735 18.6887C50.9376 18.9808 51.1544 18.8 51.2553 18.9808C51.3569 19.1617 50.8877 19.885 50.7218 19.9119C50.5567 19.9401 49.8839 19.1753 49.681 19.0086C49.4778 18.8418 48.6904 18.5766 48.2971 18.3547C47.9038 18.1321 47.5861 18.1602 47.1539 17.84C46.7232 17.5205 46.3549 17.3666 45.5672 17.3815C44.7799 17.3947 44.2725 17.187 44.0054 17.2283C43.7387 17.2701 43.841 16.9366 43.371 16.714C42.9007 16.4909 42.5962 16.1855 42.3295 16.3386C42.0628 16.4909 42.1644 17.0479 42.5712 17.117C42.9763 17.187 42.7741 17.4232 43.2056 17.3951C43.6374 17.3678 43.764 17.5346 43.7519 17.8259C43.7387 18.1184 43.9548 18.4098 44.1452 18.6051C44.3352 18.8 44.2211 19.1191 43.8781 19.1191C43.535 19.1191 43.1421 19.1749 43.2944 19.4389C43.4466 19.7034 43.1927 19.7729 42.8497 19.6338C42.5067 19.4944 42.7092 19.2308 42.8497 19.0769C42.9895 18.9246 42.5448 18.7297 42.3291 18.6457C42.1126 18.5621 41.2501 19.2585 41.0087 19.3686C40.7673 19.4799 40.1708 19.2014 39.561 19.3686C38.952 19.5358 38.9901 20.0646 38.7608 20.0088C38.5326 19.9537 37.8602 20.0783 37.6052 19.9107C37.3509 19.7439 37.5549 19.6471 37.8213 19.6608C38.0883 19.6752 38.1768 19.5772 38.0245 19.3827C37.8719 19.1878 38.2281 18.882 38.2157 18.7429C38.2032 18.6039 37.2122 18.9656 37.0471 19.1183C36.8824 19.2718 37.06 19.5507 36.8824 19.6471C36.7045 19.7439 36.7052 19.4795 36.5012 19.3963C36.2983 19.3128 34.8129 19.6885 34.5337 20.0361C34.2537 20.3841 33.7082 20.3974 33.7082 20.5923C33.7082 20.7876 33.0353 20.7731 32.7686 20.9125C32.5011 21.0512 32.6798 21.621 32.5778 21.8999C32.4762 22.1784 31.435 22.0944 31.1176 22.1084C30.8007 22.1229 30.6858 21.4406 30.4319 21.3988C30.1784 21.357 30.33 20.968 30.4074 20.8016C30.4829 20.6345 30.6862 20.7731 31.0035 20.5513C31.3209 20.3278 31.6379 20.6614 31.7652 20.5091C31.8925 20.356 31.2827 19.9529 31.2446 19.6049C31.2064 19.2581 30.5332 19.1605 30.1524 19.2714C29.7716 19.3827 29.3522 19.2846 29.0859 19.146C28.8188 19.0073 28.8448 19.3963 29.2385 19.5077C29.6321 19.6182 29.4289 19.9525 29.4924 20.1611C29.5562 20.3696 29.3904 20.8426 29.1618 21.2043C28.9336 21.5655 29.0987 21.5519 29.4421 21.5378C29.7848 21.5246 29.7595 22.0116 29.7595 22.3721C29.7595 22.7341 29.4924 22.8314 29.4924 23.0958C29.4924 23.3602 29.2124 22.9708 29.1233 23.0817C29.0349 23.193 28.9208 23.0259 28.8705 22.8037C28.8191 22.5814 28.2989 22.7056 28.0069 22.6224C27.7141 22.5392 27.6004 22.6783 27.4613 22.9146C27.3212 23.1517 26.915 23.2485 26.6993 23.2762C26.4597 23.308 26.102 23.7633 25.8738 23.93C25.6453 24.0976 25.6071 24.4171 25.9241 24.7506C26.2422 25.0842 26.3049 25.3068 26.28 25.4872C26.2554 25.6685 25.391 25.613 25.252 25.4181C25.1122 25.2236 24.5531 25.1545 24.3627 25.1955C24.1719 25.2373 23.6517 24.5698 23.3853 24.5561C23.1186 24.5417 22.9531 24.9033 22.8647 25.0838C22.7759 25.2654 22.9913 25.3213 23.1186 25.6267C23.2455 25.9333 23.7151 25.9465 23.9565 25.9465C24.1979 25.9465 24.1084 26.3496 24.0328 26.5168C23.9565 26.6835 23.5119 26.8085 23.3849 26.6277C23.258 26.4468 22.7242 26.6277 22.7117 26.4051C22.6996 26.1828 22.3188 25.8497 21.9244 25.9184C21.5311 25.9879 21.4548 25.7095 21.4801 25.3755C21.5058 25.0424 21.2644 24.8479 21.2765 24.6948C21.2893 24.5417 21.0989 24.2355 21.3014 24.0823C21.5047 23.9296 21.3528 23.6938 21.3653 23.4848C21.3785 23.2754 21.0226 22.9564 20.7052 22.9564C20.3875 22.9564 20.4521 22.6084 20.185 22.5388C19.9183 22.4693 19.3848 21.9819 19.3471 21.7741C19.3089 21.5647 18.9024 21.537 19.0422 21.4679C19.1823 21.398 19.4993 21.496 19.7275 21.746C19.9561 21.9963 20.3241 22.219 20.9206 22.3025C21.5186 22.3861 21.7589 22.6919 22.4189 22.8169C23.0797 22.9423 23.4733 23.0255 24.4254 23.179C25.3782 23.3321 26.648 22.2748 26.9143 21.9823C27.181 21.6905 26.838 21.093 26.838 20.8699C26.838 20.6477 26.4058 20.6196 26.3438 20.4532C26.2789 20.286 25.9997 19.9806 25.6321 19.9806C25.2634 19.9806 25.2127 19.5209 24.9211 19.5499C24.6283 19.5768 24.425 19.4096 23.6634 18.8534C22.9018 18.2981 21.8484 17.8942 21.6573 17.9911C21.4669 18.0887 21.3399 18.1442 21.213 17.936C21.0861 17.7274 20.794 17.7552 20.5911 17.9219C20.3872 18.0887 20.185 17.7692 19.8038 17.8661C19.4226 17.9637 19.2198 17.6853 19.3206 17.5603C19.4226 17.4349 19.9818 17.5466 19.9557 17.3381C19.9311 17.1295 19.7271 17.3381 19.3845 17.0877C19.0414 16.8373 18.8514 17.0041 18.7751 17.2135C18.6991 17.4216 18.4324 17.365 18.2541 17.1853C18.2383 17.1681 18.2163 17.154 18.1962 17.1399C18.1375 17.4883 17.9496 17.5233 17.7596 17.4767C17.5306 17.4212 17.3021 17.838 17.0489 17.838C16.7947 17.838 16.5155 18.1438 16.4634 18.3941C16.4135 18.6445 16.1347 18.5054 16.1347 18.6722C16.1347 18.8398 16.1347 19.0065 16.0066 19.1733C15.8804 19.3405 16.0066 19.4241 16.1347 19.7013C16.2616 19.9802 16.5401 19.9521 16.6677 20.0357C16.7947 20.1189 17.2768 20.5641 17.2768 20.7309C17.2768 20.8981 16.8963 21.3152 16.744 21.4269C16.5911 21.537 16.3874 21.8155 16.4898 21.9819C16.5911 22.1494 17.0232 22.8446 17.3021 23.4012C17.5824 23.9574 17.2015 23.7074 17.0232 23.9574C16.8457 24.2073 17.0988 24.5139 17.1498 24.6807C17.2015 24.8475 16.9216 24.8193 16.9469 24.958C16.9719 25.0978 17.3531 25.1537 17.3788 25.2646C17.4041 25.3751 17.1249 25.515 17.2511 25.7376C17.3795 25.9606 17.6833 25.9594 17.7086 26.2379C17.7343 26.5164 17.1498 26.5433 17.1751 26.7667C17.2012 26.9889 17.9371 27.267 18.2677 27.6842C18.5975 28.1017 18.5722 28.2122 18.4966 28.436C18.3425 28.8837 17.4297 29.2707 17.2261 29.771C17.0232 30.2717 16.2616 30.549 15.9057 30.9392C15.7604 31.0983 15.6166 31.3121 15.4959 31.5102C15.6471 31.4684 15.7667 31.4182 15.8547 31.3699C16.058 31.2578 16.1974 31.8007 16.401 31.9816C16.6043 32.1628 17.0104 31.9952 17.1498 32.1628C17.29 32.3296 17.035 32.3428 16.7444 32.2878C16.452 32.2319 16.3757 32.4264 15.9182 32.5932C15.5774 32.7182 15.6111 32.8508 15.4967 32.9561C15.7025 33.2828 15.427 33.325 15.3217 33.5737C15.2072 33.845 15.0546 33.8872 15.0362 34.0539C15.0168 34.2211 15.0744 34.3465 15.0935 34.596C15.1122 34.8472 15.1503 34.8886 15.2835 35.0971C15.417 35.3057 15.1694 35.3057 15.0549 35.4098C14.9408 35.5143 15.0168 35.7437 15.1698 35.9105C15.322 36.0773 15.322 36.2858 15.2655 36.4321C15.2079 36.5776 15.398 36.8287 15.5319 36.9746C15.6647 37.1209 15.6467 37.5179 15.7601 37.6208C15.8745 37.7257 16.0077 37.8301 16.2176 37.7666C16.4271 37.7048 16.5602 37.8084 16.6549 37.9969C16.7507 38.1842 16.9029 38.101 17.1128 37.9969C17.3215 37.892 17.7977 38.1842 17.9126 38.2469C18.027 38.3091 17.9694 38.664 17.9885 38.893C18.0072 39.1229 17.8744 39.4146 18.0839 39.5609C18.2934 39.7068 18.2361 40.0403 18.4834 40.1452C18.7318 40.2501 18.8272 40.6246 18.9794 40.6664C19.1317 40.7082 19.4171 40.9586 19.4553 41.1458C19.4934 41.3331 19.1886 41.5011 19.0169 41.5842C18.8459 41.6674 18.5219 41.3335 18.4082 41.4798C18.2937 41.626 18.4464 41.8969 18.541 42.3562C18.6368 42.8155 18.7131 42.8565 18.9031 42.8565C19.0939 42.8565 19.1699 42.7114 19.303 42.6279C19.4362 42.5443 19.7415 42.6693 19.875 42.6066C20.0085 42.5439 20.4837 42.5234 20.5794 42.6897C20.6748 42.8565 20.7694 43.2531 20.6939 43.3998C20.6176 43.5449 20.7889 43.7121 20.8846 43.9214C20.9797 44.1296 21.3799 44.0251 21.5131 44.0882C21.6467 44.1505 21.9508 44.609 21.8939 44.8172C21.8367 45.0265 22.0843 45.0679 22.2179 45.0056C22.3511 44.9433 22.4846 45.1101 22.6369 45.215C22.7888 45.3191 22.9223 45.2773 23.0749 45.1728C23.2272 45.0683 23.4748 44.9855 23.5508 45.131C23.6274 45.2773 23.9316 45.5489 23.9316 45.6321C23.9316 45.7153 24.4082 45.6321 24.6364 45.7571C24.8646 45.8821 25.1129 45.8186 25.3606 45.9656C25.6082 46.1115 25.8364 46.1332 25.8555 46.2996C25.8749 46.4664 25.6082 46.6126 25.6082 46.6954C25.6082 46.779 25.8173 46.8417 25.8173 46.9671C25.8173 47.0928 25.5506 47.0928 25.5128 47.1965C25.4747 47.3014 25.6651 47.4469 25.7029 47.5506C25.7418 47.6554 25.551 48.0103 25.551 48.1147C25.551 48.2188 24.9798 48.0931 24.8466 48.0931C24.713 48.0931 24.3128 48.5733 24.18 48.5938C24.0659 48.6118 24.1194 48.8433 24.1605 49.0394C24.5711 48.9538 24.9915 48.9185 25.0366 49.0181C25.1133 49.1853 24.148 49.6301 23.9705 49.6993C23.7922 49.7692 24.3131 50.0605 24.3007 50.2277C24.2882 50.3949 23.7419 50.4367 23.7918 50.7702C23.8432 51.1033 23.615 51.1741 23.3222 51.1741C23.0309 51.1741 22.9542 51.3682 23.0944 51.3959C23.2345 51.424 23.2209 51.8411 23.7676 51.9938C24.3128 52.1469 24.8972 52.7039 25.3672 53.2593C25.4328 53.3372 25.5095 53.3995 25.5906 53.4518C25.7264 53.3621 25.8441 53.2979 25.9127 53.287C26.1798 53.2452 26.6744 53.4128 26.9415 53.6205C27.2085 53.8291 28.1602 53.5787 28.2747 53.7459C28.3892 53.9131 28.6174 54.1221 28.8081 54.1221C28.9985 54.1221 29.189 54.5392 29.3412 54.4134C29.4935 54.2888 30.0643 54.2888 30.2173 54.2888C30.3696 54.2888 30.3696 54.4134 30.5218 54.4134C30.6745 54.4134 30.6745 55.0399 30.7889 54.9985C30.903 54.9567 31.322 55.3734 31.5891 55.4152C31.8558 55.457 32.1222 55.9573 32.2363 55.9159C32.3504 55.8741 32.5411 56.1245 32.6167 55.9159C32.6905 55.7186 33.0661 55.8143 33.1714 55.4715C32.6886 54.8245 32.1706 54.1072 32.186 53.8295C32.2109 53.3569 32.3892 53.0511 31.8558 52.5504C31.3224 52.0505 31.9064 51.7166 32.288 51.1873C32.6285 50.7151 33.3519 50.5086 33.8113 50.1718C33.7181 50.1007 33.6223 50.0356 33.5317 49.9918C33.1883 49.8246 33.0742 49.6575 33.3409 49.5743C33.6077 49.4907 33.4932 49.3243 33.2268 48.9908C32.9601 48.656 32.8456 48.3221 32.693 48.3221C32.5408 48.3221 32.3122 48.2807 32.0833 48.3643C31.8554 48.4475 31.8932 48.1549 31.9314 47.8636C31.9695 47.571 31.512 47.6132 31.4361 47.4879C31.3601 47.3625 31.5506 46.9462 31.6269 46.904C31.7028 46.8622 31.9314 46.7368 31.9314 46.6118C31.9314 46.486 31.512 46.4443 31.6643 46.1521C31.8165 45.8604 32.1218 45.8604 32.1218 45.5686C32.1218 45.2769 32.3496 45.0261 32.6163 45.2339C32.8831 45.4432 32.9979 45.9857 33.3028 45.8608C33.6073 45.7354 33.4165 45.4432 33.3787 45.2769C33.3406 45.1097 33.2643 44.8593 33.6073 44.7762C33.9496 44.6926 33.7981 44.3168 34.0641 44.3168C34.3308 44.3168 34.8261 43.9415 34.9783 43.8575C35.1309 43.7739 35.4736 43.5654 35.6259 43.6486C35.7785 43.733 35.9689 43.9415 36.0837 43.6486C36.1975 43.356 36.6546 43.4822 36.6924 43.6486C36.7305 43.8161 37.454 43.8161 37.6829 43.9825C37.9111 44.1497 38.4068 44.4832 38.4068 44.65C38.4068 44.8164 38.6354 45.0671 38.6354 44.7758C38.6354 44.4832 38.8254 44.5668 39.1303 44.7758C39.4352 44.9847 39.8549 44.9007 39.9308 44.6922C40.0064 44.4832 40.5784 44.2333 40.7688 44.4C40.9592 44.5668 41.0355 44.6922 41.2641 44.4418C41.4923 44.1907 42.0257 44.2329 42.102 44.4832C42.1776 44.734 42.4443 44.7758 42.6736 44.7758C42.9018 44.7758 42.9403 45.1511 43.0919 45.0675C43.2448 44.9847 43.2067 44.5672 43.3971 44.6082C43.5879 44.65 43.7401 44.9007 44.0446 44.9007C44.3495 44.9007 44.5777 44.8167 44.5777 44.5672C44.5777 44.3168 44.5396 43.8997 44.3495 43.8997C44.1595 43.8997 43.9687 43.6912 43.7401 43.6912C43.5116 43.6912 43.283 43.2732 43.5116 43.1901C43.7401 43.1073 44.1209 42.8983 44.0446 42.6893C43.9687 42.4812 43.8927 42.0637 44.1969 42.0223C44.5018 41.9805 45.1497 41.9805 45.1108 41.8555C45.073 41.7297 44.4636 41.6465 44.3495 41.4384C44.235 41.2294 44.1969 40.7287 44.3114 40.6455C44.4262 40.5615 44.8066 40.6869 45.0356 40.6037C45.2638 40.5197 45.7594 40.7287 46.0643 40.4779C46.3684 40.228 47.0164 40.1858 47.3587 40.1858C47.7021 40.1858 47.9684 39.935 48.2355 39.8937C48.5022 39.8519 49.2642 39.7273 49.4539 39.6429C49.6451 39.5601 50.6727 39.3937 50.7112 39.1844C50.7494 38.9758 51.5682 38.8087 51.7777 38.9135C51.9868 39.0172 52.2539 39.1012 52.4443 39.0172C52.6344 38.9344 53.0346 39.1631 52.9965 39.3937C52.9583 39.6228 53.1682 39.8728 53.1491 40.0604C53.1293 40.2493 52.9393 40.3116 53.0534 40.4571C53.1682 40.6033 53.6822 40.4988 53.8341 40.3116C53.9871 40.1235 54.158 40.3948 54.158 40.5402C54.158 40.6861 54.4053 40.791 54.4053 40.6033C54.4053 40.4145 54.7109 40.5402 54.8059 40.6652C54.9013 40.791 55.2634 40.5193 55.2634 40.7279C55.2634 40.9365 54.73 41.1032 54.9586 41.3323C55.1868 41.5621 55.3199 41.061 55.6061 41.1659C55.8923 41.2708 56.2724 40.8111 56.5394 40.7488C56.8065 40.6861 57.0916 40.4145 57.3198 40.2686C57.5487 40.1235 58.044 40.1649 57.8918 40.3317C57.7388 40.4984 57.5678 40.8111 58.1398 41.0405C58.711 41.2708 59.3585 42.4808 59.7199 43.0852C60.0817 43.6908 60.4251 44.7754 60.6147 44.7754C60.8059 44.7754 60.8627 44.2329 61.1108 44.1706C61.3584 44.1079 61.5103 44.6291 61.777 44.6918C62.0437 44.7541 62.4055 44.9212 62.615 44.8372C62.8245 44.7541 63.3003 44.4619 63.472 44.5664C63.6437 44.6709 63.8719 44.6709 64.0249 45.0667C64.1764 45.4629 64.4057 45.5473 64.558 45.5473C64.7095 45.5473 64.7421 45.7346 64.7421 45.9018C64.7421 46.0685 65.0213 46.2911 65.1736 46.2911C65.3258 46.2911 65.7323 46.2345 65.8593 46.1513C65.9858 46.0685 66.1396 45.9857 66.1642 46.1798C66.1895 46.3743 66.418 46.6801 66.5703 46.6801C66.7225 46.6801 67.0271 46.8204 67.0524 46.6801C67.078 46.5411 67.4842 46.4579 67.6364 46.4298C67.7891 46.4021 68.3229 46.2907 68.4238 46.0404C68.5254 45.7904 68.9568 45.7904 69.0849 45.6233C69.2107 45.4569 69.5666 45.3733 69.6429 45.2061C69.7196 45.0394 70.176 45.0671 70.2277 44.9277C70.2783 44.7886 70.6588 44.7613 70.8367 44.8159C71.0139 44.8734 71.904 45.0667 72.0298 45.0398C72.1571 45.0121 72.1828 45.5405 72.3094 45.5678C72.4374 45.5959 72.8942 45.9849 73.0208 45.8744C73.147 45.7627 73.4526 45.6506 73.7061 45.817C73.9603 45.9849 74.2146 46.2076 74.3151 46.0127C74.4167 45.817 74.9498 45.7346 75.0269 45.6233C75.1028 45.5116 75.1791 45.1784 75.0514 45.0663C74.9252 44.9562 74.7983 44.5101 74.7466 44.2875C74.6959 44.0649 75.0514 44.0094 75.1028 43.8149C75.1531 43.6208 75.4587 43.5923 75.5599 43.481C75.6612 43.3701 75.6865 43.1197 75.8648 43.1748C76.042 43.231 76.4228 43.3697 76.4991 43.4533C76.5755 43.5364 76.855 43.5923 77.0322 43.5923C77.2105 43.5923 77.4897 43.7587 77.6673 43.87C77.8452 43.9809 78.4043 43.9809 78.5052 44.1481C78.6069 44.3148 78.4796 44.7878 78.6069 44.9554C78.7334 45.1218 79.0387 45.483 79.1399 45.3998C79.2412 45.3162 79.7244 45.6783 79.9023 45.6494C80.0795 45.6225 80.3587 45.3163 80.511 45.3163C80.6636 45.3163 81.146 45.1772 81.2983 45.2053C81.4502 45.2319 82.0093 45.4561 82.0856 45.3998C82.1616 45.3436 82.6689 45.4276 82.746 45.5947C82.8216 45.7611 83.457 45.7611 83.457 45.956C83.457 46.1497 83.8121 46.2618 83.9138 46.4836C84.0158 46.7071 84.8537 46.568 85.0067 46.7071C85.1586 46.8457 86.1238 46.8188 86.1492 46.7071C86.1741 46.5957 87.0884 46.5399 87.2659 46.4005C87.4442 46.2614 87.9263 46.3177 87.9524 46.1228C87.977 45.9275 88.4341 45.7892 88.6373 45.6221C88.8406 45.4557 89.6532 45.4822 89.7042 45.6783C89.7541 45.8728 90.2373 45.9275 90.4406 45.8447C90.6438 45.7611 91.1769 45.8728 91.2532 46.0673C91.3295 46.2618 91.9385 46.3735 92.0915 46.3177C92.2438 46.2618 92.7258 45.8732 92.9034 45.8447C93.0813 45.8158 93.3349 45.6221 93.2846 45.4276C93.2336 45.2319 93.6405 44.6769 93.6907 44.4543C93.7414 44.2313 94.0972 43.62 94.2242 43.5634C94.3511 43.5079 94.6307 43.2576 94.6046 43.0908C94.5793 42.924 94.5034 42.4229 94.3511 42.4229C94.1989 42.4229 93.9197 42.4514 94.2748 41.9218C94.6303 41.3938 95.2658 41.5336 95.3674 41.5336C95.4679 41.5336 96.2813 41.3102 96.6364 41.4219C96.9923 41.5336 97.2205 41.3668 97.6013 41.5887C97.9821 41.8109 98.5159 41.7277 98.6429 41.9218C98.7702 42.1175 99.2776 42.2843 99.2016 42.6178C99.125 42.9517 99.4808 42.7573 99.6074 43.4802C99.7351 44.2039 100.039 44.259 100.115 44.5925C100.191 44.9265 100.598 45.5389 100.547 45.7334C100.496 45.9275 100.446 46.2333 100.877 46.2618C101.309 46.2895 101.614 46.6512 101.715 46.5957C101.817 46.5399 102.324 46.7344 102.578 47.0125C102.833 47.2906 103.213 47.1523 103.189 47.4585C103.162 47.7639 103.392 48.0135 103.366 48.2642C103.34 48.5146 103.849 48.6818 104.204 48.6263C104.559 48.5701 104.813 48.7654 104.966 48.4306C105.118 48.0971 105.626 48.2361 105.804 48.0971C105.981 47.9588 106.515 47.7909 106.489 48.292C106.463 48.7927 106.768 48.9036 106.514 49.0708C106.26 49.2371 106.133 49.9609 106.057 50.2671C105.981 50.5733 105.6 50.6565 105.549 50.99C105.498 51.3235 105.143 51.3517 105.143 51.602C105.143 51.8524 104.635 51.7969 104.381 51.602C104.128 51.4071 103.874 51.9637 103.671 51.9637C103.467 51.9637 103.492 52.4363 103.543 52.6316C103.595 52.8261 103.467 53.076 103.595 53.4104C103.663 53.5892 103.621 53.9296 103.654 54.3093C103.964 54.0642 104.244 53.8825 104.369 53.8825C104.686 53.8825 105.003 54.4809 105.359 54.4938C105.715 54.5082 107.327 53.326 107.339 53.1315C107.353 52.937 108.292 51.9492 108.736 51.4345C109.18 50.9197 109.765 50.169 109.993 49.5847C110.134 49.2247 110.755 48.5271 110.907 48.2498C111.06 47.9717 111.161 47.9432 111.441 47.2897C111.72 46.6367 111.72 44.9253 111.809 44.8135C111.898 44.703 111.847 44.4113 111.974 44.2304C112.101 44.0496 112.037 43.8001 112.291 43.5626C112.545 43.3271 112.494 43.1181 112.431 42.9365C112.367 42.7564 112.443 42.3526 112.38 42.2276C112.317 42.1018 112.329 42.0468 112.481 41.9499C112.634 41.8535 112.38 41.6019 112.164 41.4902C111.948 41.3793 111.669 41.2821 111.644 41.0176C111.618 40.7532 111.251 40.4337 110.97 40.4607C110.691 40.4892 110.17 40.2947 110.233 40.4892C110.298 40.6837 110.208 40.8493 110.07 40.8083C109.93 40.7665 109.865 40.8919 109.701 41.1699C109.536 41.4488 108.951 41.4757 109.218 41.2117C109.485 40.9477 109.13 40.9336 109.18 40.6556C109.232 40.3775 109.447 40.0986 109.155 40.2794C108.863 40.4599 108.863 40.8911 108.622 40.9477C108.381 41.0028 108.457 40.1962 108.52 39.9873C108.585 39.7783 108.076 40.0013 107.543 39.9596C107.009 39.9182 107.149 39.5147 107.581 39.2639C108.013 39.0136 107.937 38.7781 108.152 38.6801C108.368 38.5828 108.927 38.1793 109.257 37.9704C109.587 37.7614 109.651 37.5263 109.727 37.2896C109.804 37.053 110.413 36.7604 110.959 36.2746C111.504 35.7875 111.771 35.509 111.899 35.2169C112.026 34.9247 112.838 34.5639 112.851 34.3409C112.863 34.1182 113.816 33.5621 114.463 33.4226C115.111 33.2836 116.139 33.4644 116.33 33.673C116.521 33.8815 116.66 33.7983 116.774 33.6593C116.889 33.5199 117.142 33.589 117.574 33.6448C118.006 33.7007 118.108 33.4222 118.4 33.5199C118.691 33.6175 118.933 33.6726 119.111 33.2972C119.288 32.9215 120.127 32.9914 120.317 33.1445C120.508 33.298 120.661 33.5058 120.965 33.2832C121.269 33.0605 121.269 33.5753 121.561 33.6175C121.854 33.6593 121.663 33.937 121.409 33.9093C121.155 33.8815 120.837 34.0483 121.13 34.2295C121.422 34.4096 121.765 34.0624 121.994 34.0897C122.221 34.1178 122.577 34.1455 122.894 33.9229C123.212 33.7003 123.301 34.1038 123.504 33.9089C123.707 33.7144 124.164 33.6589 124.393 33.6726C124.621 33.6866 124.431 33.3804 124.05 33.3804C123.669 33.3804 123.681 33.1582 123.986 32.5876C124.291 32.0181 124.875 31.7115 125.243 31.3643C125.612 31.0175 125.878 31.1843 125.878 30.9609C125.878 30.7386 126.055 30.1126 126.335 30.0993C126.614 30.0844 127.312 30.2243 127.745 29.9594C128.176 29.695 128.138 30.1548 128.316 30.2243C128.493 30.2934 128.735 29.8208 128.938 29.9594C129.142 30.0993 128.633 30.4324 128.519 30.8351C128.404 31.2389 128.786 31.0866 129.001 31.198C129.217 31.3093 128.721 31.4756 128.773 31.5865C128.823 31.6983 129.255 31.6983 129.814 31.0866C130.373 30.4746 130.881 30.3079 131.236 30.3496C131.592 30.3914 131.388 30.0016 131.414 29.4318C131.439 28.8616 132.531 28.6944 132.886 28.8616C133.242 29.0284 133.216 29.1815 132.873 29.0838C132.531 28.9866 132.213 29.3201 132.226 29.7931C132.239 30.2665 131.921 30.4188 132.087 30.6004C132.252 30.7804 131.845 30.8222 131.833 31.0179C131.82 31.2124 131.833 31.3647 131.578 31.4483C131.326 31.5319 130.474 31.6291 130.449 31.9904C130.423 32.3525 129.967 32.3939 129.75 32.8387C129.535 33.284 128.709 33.5484 128.164 34.4385C127.618 35.3278 126.755 35.3278 126.755 35.4946C126.755 35.6621 126.157 35.6485 125.954 35.6758C125.751 35.7039 126.145 36.246 125.662 36.8163C125.18 37.3861 124.862 38.1789 124.875 38.9722C124.887 39.7647 125.128 42.0456 125.345 42.4494C125.56 42.8529 125.433 43.8402 125.611 44.0484C125.789 44.257 125.726 44.6042 125.84 44.7299C125.954 44.8549 126.424 44.1734 126.741 43.8816C127.059 43.5895 126.957 43.4922 127.173 43.3391C127.389 43.1856 127.3 42.5463 127.364 42.3791C127.427 42.2119 127.821 42.1288 127.948 41.9487C128.075 41.7679 128.405 41.8788 128.583 41.8085C128.76 41.7402 128.57 41.2808 128.506 41.0164C128.442 40.752 129.026 40.3903 129.331 40.1541C129.636 39.9182 130.017 40.3076 130.36 39.9596C130.703 39.6124 130.335 39.2085 130.207 39.0285C130.081 38.848 130.551 37.9704 130.817 37.8872C131.084 37.8036 131.223 38.0962 131.477 37.8454C131.731 37.5951 131.249 37.1924 131.071 37.2197C130.894 37.2475 130.83 36.5101 131.249 36.1633C131.668 35.8152 131.502 35.7453 131.224 35.6625C130.944 35.5794 130.893 35.6907 130.678 35.7043C130.462 35.718 130.246 35.2173 130.576 34.731C130.907 34.244 131.224 34.2995 131.3 33.8968C131.376 33.4929 131.833 32.9227 131.948 32.7146C132.062 32.5056 132.519 32.7146 132.697 32.6728C132.874 32.631 132.812 33.0481 133.026 32.8395C133.243 32.631 133.598 31.9362 133.89 31.9362C134.182 31.9362 133.992 32.4501 134.068 32.7563C134.144 33.0626 134.309 32.6732 134.868 32.2556C135.426 31.8385 136.645 31.8799 137.013 32.0748C137.382 32.2701 137.445 32.7286 137.648 32.6728C137.958 32.5888 137.699 32.2134 138.004 32.1162C138.309 32.0193 138.842 31.6713 139.249 31.3511C139.655 31.0316 139.54 31.2683 139.756 30.9761C139.973 30.684 140.188 30.8094 140.252 30.6149C140.316 30.4192 140.899 30.1001 141.699 29.9044C142.499 29.7099 143.54 29.126 143.489 28.9452C143.439 28.7643 143.794 28.6808 143.832 28.8616C143.87 29.0416 144.176 28.9729 144.594 29.0697C145.013 29.1674 145.204 29.3486 145.534 28.9866C145.864 28.6245 145.496 28.4995 145.508 28.2222C145.521 27.9438 144.936 27.6516 145.013 27.3599C145.09 27.0673 144.582 26.2881 144.429 26.4416C144.277 26.5947 143.921 26.3167 143.921 26.094C143.921 25.8714 143.896 25.6074 143.654 25.7737C143.414 25.9409 143.007 25.8573 142.931 25.607C142.854 25.3566 143.401 25.1758 143.781 25.3434C144.162 25.5101 144.049 25.6769 144.238 25.8015C144.429 25.9273 144.949 25.8714 145.216 25.7324C145.483 25.5929 146.232 25.3289 146.358 25.093C146.486 24.8563 146.346 24.7446 146.6 24.606C146.854 24.4673 146.663 24.1748 146.448 24.0498C146.232 23.924 146.282 23.5909 146.511 23.5909C146.739 23.5909 146.676 23.2983 146.828 23.2843C146.981 23.2702 147.005 23.4092 147.285 23.2569C147.564 23.1038 147.298 23.4924 147.171 23.7577C147.044 24.0213 147.438 24.2435 147.476 24.3974C147.514 24.5505 148.059 24.606 148.364 24.4247C148.669 24.2447 149.647 24.6474 149.71 24.9114C149.774 25.1758 149.914 25.4961 150.32 25.7187C150.726 25.9409 151.095 25.8441 151.17 26.0522C151.246 26.2608 151.399 26.3717 151.628 26.3166C151.856 26.2608 151.983 26.5381 152.147 26.3717C152.313 26.2049 152.402 26.4694 152.618 26.2608C152.833 26.0522 152.147 25.9128 152.237 25.7464C152.325 25.5792 152.466 25.8718 152.656 25.8577C152.847 25.8445 152.605 25.4406 152.745 25.3984C152.884 25.357 152.77 24.5228 152.618 24.4673C152.466 24.4115 152.592 24.1189 152.885 24.3556C153.176 24.5919 153.633 24.5782 153.85 24.5782C154.066 24.5782 153.862 24.3556 153.647 24.3138C153.43 24.2728 153.685 24.0771 153.837 24.2302C153.989 24.3837 154.281 24.4529 154.307 24.2861C154.332 24.1189 154.484 23.7577 154.751 23.7713C155.014 23.7886 155.103 23.621 154.849 23.5242ZM84.0369 41.7704C83.3137 42.4801 81.8657 42.6464 81.8657 43.2311C81.8657 43.815 80.1138 44.1072 79.9616 43.8564C79.8284 43.6374 81.2563 43.5643 81.5997 42.7296C81.9427 41.8954 83.2429 41.4654 83.885 40.3514C84.3421 39.559 84.7229 38.3498 84.99 38.433C85.2567 38.5166 84.7611 41.0607 84.0369 41.7704ZM87.2622 9.10213C87.1609 9.32516 86.6088 9.33963 86.7548 9.54739C87.009 9.90946 88.2784 9.71456 88.3038 9.2693C88.3287 8.82405 87.3645 8.87991 87.2622 9.10213ZM37.6687 11.3276C37.6936 11.6056 37.541 11.8001 37.0589 11.8001C36.5761 11.8001 37.2875 12.1345 37.3377 12.4399C37.3891 12.7465 36.8557 12.5235 36.8307 12.9965C36.8047 13.469 35.8904 12.9965 35.7638 13.6081C35.6373 14.2205 36.2206 14.1369 36.6275 14.1651C37.0332 14.1928 36.4745 14.6095 36.7793 14.8599C37.0835 15.1102 37.3124 15.0266 37.1095 14.554C36.9063 14.0815 38.1757 14.7212 37.7949 15.0829C37.4144 15.4445 38.4046 15.7222 38.8874 15.7504C39.3706 15.7785 41.0817 16.188 41.1217 15.7504C41.1478 15.4723 40.4874 15.2219 39.9536 14.6095C39.4205 13.9983 39.0393 12.9965 39.6494 12.5793C40.2585 12.1618 39.7254 11.9673 40.3344 11.4943C40.9442 11.0214 40.589 10.5765 41.0964 10.5206C41.6045 10.4652 41.0458 9.96448 41.5535 9.8813C42.0617 9.79772 42.1629 9.18569 42.087 8.96307C42.0107 8.74124 42.6197 8.9912 42.8993 8.65726C43.1785 8.32332 43.8396 8.54594 44.0417 8.07336C44.245 7.59998 47.1657 6.51498 48.8167 6.09745C50.4669 5.68073 51.6097 4.92927 51.0256 4.42896C50.4412 3.92825 48.7906 4.62386 48.3841 4.98553C47.9776 5.34639 47.3946 5.09644 46.9881 5.34639C46.5813 5.59715 45.7176 5.81977 45.2865 5.51356C44.8544 5.20815 44.3462 5.87563 44.0168 5.8479C43.6862 5.82017 43.3058 6.20917 42.9503 6.18184C42.5944 6.15452 41.8834 6.48805 41.8327 6.71028C41.7814 6.93291 41.1724 6.87745 41.1724 7.15553C41.1724 7.43402 40.6899 7.68316 40.4353 7.43321C40.1822 7.18286 39.8773 7.7117 40.2324 8.07377C40.5879 8.43543 39.5728 8.46276 39.7496 8.68498C39.9279 8.90801 39.3691 9.04705 39.4961 9.29701C39.623 9.54736 39.1406 9.63095 38.7594 9.71453C38.3786 9.79812 38.1753 10.3539 38.6585 10.382C39.1409 10.4097 38.3786 10.4933 38.4303 10.9104C38.4809 11.3276 37.6422 11.0495 37.6687 11.3276Z" fill="#0F111A"/>
<path d="M30.5 33.5C37.5 34 55.4 32.6 71 23" stroke="#FAFAFA" stroke-dasharray="2 2"/>
<path d="M36.4997 23.2733L36.5003 23.2494L36.4997 23.2256C36.4575 21.495 35.856 20.0043 34.6759 18.8241C33.4957 17.644 32.005 17.0425 30.2744 17.0003L30.25 16.9997L30.2256 17.0003C28.495 17.0425 27.0043 17.644 25.8241 18.8241C24.644 20.0043 24.0425 21.495 24.0003 23.2256L23.9994 23.2611L24.0011 23.2965C24.0464 24.2715 24.3812 25.2993 24.9326 26.3627L24.9359 26.3691L24.9393 26.3755C25.4898 27.4005 26.1154 28.3956 26.8156 29.3607L26.8155 29.3607L26.8231 29.3709C27.5232 30.3105 28.1384 31.0941 28.6672 31.7173L28.6728 31.7239L28.6785 31.7304C29.1823 32.3037 29.4943 32.6586 29.5429 32.7071L30.0525 33.2168L30.6972 32.8944C30.8039 32.8411 30.8788 32.7788 30.8956 32.7648L30.8972 32.7636C30.926 32.7397 30.9496 32.7178 30.9644 32.7036C30.995 32.6745 31.0245 32.644 31.0488 32.6183C31.0992 32.5649 31.1615 32.4958 31.2323 32.4155C31.3745 32.2544 31.5736 32.0228 31.8273 31.7238C32.3807 31.0935 32.9989 30.3053 33.6807 29.3658C34.4012 28.3983 35.0294 27.3994 35.5641 26.369C36.1356 25.3034 36.4767 24.2647 36.4997 23.2733Z" fill="#1EB9C7" stroke="#FAFAFA" stroke-width="2"/>
</g>
<defs>
<clipPath id="clip0_12_62">
<rect width="64" height="64" fill="white"/>
</clipPath>
</defs>
</svg>
