<svg width="64" height="64" viewBox="0 0 64 64" fill="none" xmlns="http://www.w3.org/2000/svg">
<rect width="64" height="64" fill="#FAFAFA"/>
<path d="M31.8661 14L32.6877 14.2988L48.5964 20.4979L48.7458 21.917C48.8453 23.7095 48.696 25.8506 48.2976 28.3403C47.9491 30.8299 47.2022 33.3942 46.057 36.0332C44.9615 38.722 43.3184 41.2863 41.1275 43.7261C38.9864 46.1162 36.198 48.083 32.7624 49.6266L31.8661 50L30.9698 49.6266C27.5341 48.083 24.7458 46.1162 22.6047 43.7261C20.4636 41.3361 18.8204 38.7967 17.6752 36.1079C16.53 33.4191 15.7831 30.8299 15.4346 28.3403C15.0362 25.8506 14.9117 23.7095 15.0611 21.917L15.1358 20.4979L31.0445 14.2988L31.8661 14Z" fill="#0F111A"/>
<path d="M31.2892 26.229L30.1901 25.3211L29.7106 26.6637L29.407 27.5138L28.5157 27.3619L27.1248 27.1248L27.3619 28.5157L27.5138 29.407L26.6637 29.7106L25.3211 30.1901L26.229 31.2892L26.8162 32L26.229 32.7108L25.3211 33.8099L26.6637 34.2894L27.5138 34.593L27.3619 35.4843L27.1248 36.8752L28.5157 36.6381L29.407 36.4862L29.7106 37.3363L30.1901 38.6789L31.2892 37.771L32 37.1838L32.7108 37.771L33.8099 38.6789L34.2894 37.3363L34.593 36.4862L35.4843 36.6381L36.8752 36.8752L36.6381 35.4843L36.4862 34.593L37.3363 34.2894L38.6789 33.8099L37.771 32.7108L37.1838 32L37.771 31.2892L38.6789 30.1901L37.3363 29.7106L36.4862 29.407L36.6381 28.5157L36.8752 27.1248L35.4843 27.3619L34.593 27.5138L34.2894 26.6637L33.8099 25.3211L32.7108 26.229L32 26.8162L31.2892 26.229Z" fill="#1EB9C7" stroke="#FAFAFA" stroke-width="2"/>
</svg>
