<svg width="52" height="12" viewBox="0 0 52 12" fill="none" xmlns="http://www.w3.org/2000/svg">
<g clip-path="url(#clip0_332_1235)">
<path d="M13.4238 6.85301V0.751953H15.6148V6.77665C15.6148 8.19226 16.4371 9.16538 18.0045 9.16538C19.5719 9.16538 20.3776 8.19129 20.3776 6.77665V0.751953H22.5842V6.83832C22.5842 9.36411 21.0922 11.0832 18.0045 11.0832C14.9148 11.0832 13.4238 9.34845 13.4238 6.85301Z" fill="#737373"/>
<path d="M27.791 9.46925L28.9619 7.8265C29.6775 8.57249 30.7877 9.19513 32.1877 9.19513C33.3752 9.19513 33.9528 8.64788 33.9528 8.06929C33.9528 6.27383 28.1102 7.50637 28.1102 3.68734C28.1102 1.99859 29.5708 0.598633 31.9595 0.598633C33.5729 0.598633 34.9112 1.08519 35.9156 2.01425L34.7134 3.5963C33.893 2.83562 32.7966 2.48612 31.7618 2.48612C30.8337 2.48612 30.3168 2.89632 30.3168 3.50525C30.3168 5.11764 36.1437 4.03782 36.1437 7.8265C36.1437 9.68267 34.8202 11.0826 32.0819 11.0826C30.1347 11.0826 28.7348 10.4277 27.791 9.46925Z" fill="#737373"/>
<path d="M41.2119 5.79241C41.2119 2.7086 43.4665 0.5 46.5503 0.5C49.6488 0.5 51.9034 2.7086 51.9034 5.79241C51.9034 8.87525 49.6488 11.0838 46.5503 11.0838C43.4665 11.0838 41.2119 8.87525 41.2119 5.79241ZM49.6635 5.79241C49.6635 3.87555 48.4368 2.4335 46.5503 2.4335C44.6638 2.4335 43.4518 3.87555 43.4518 5.79241C43.4518 7.69459 44.6638 9.15132 46.5503 9.15132C48.4368 9.15132 49.6635 7.69459 49.6635 5.79241Z" fill="#737373"/>
<path d="M5.93463 7.0351C7.03012 6.77665 8.15693 5.81822 8.15693 4.02275C8.15693 2.13624 6.86369 0.751953 4.74809 0.751953H0V2.65315H2.16063H2.32118H4.42894C5.29633 2.65315 5.95029 3.17005 5.95029 4.02275C5.95029 4.87447 5.29535 5.39236 4.42894 5.39236H2.32118H2.16063H0.000978824V10.9001H2.16161V7.29453H3.74463L5.73687 10.9011H8.21763L5.93463 7.0351Z" fill="#737373"/>
</g>
<defs>
<clipPath id="clip0_332_1235">
<rect width="52" height="11" fill="white" transform="translate(0 0.5)"/>
</clipPath>
</defs>
</svg>
